<svg width="1728" height="248" viewBox="0 0 1728 248" fill="none" xmlns="http://www.w3.org/2000/svg">
<g clip-path="url(#clip0_774_27963)">
<path d="M1527.6 -4.47925H1507.16C1503.26 -4.47925 1500.1 -1.31726 1500.1 2.5833V23.0238C1500.1 26.9243 1503.26 30.0864 1507.16 30.0864H1527.6C1531.5 30.0864 1534.67 26.9243 1534.67 23.0238V2.5833C1534.67 -1.31726 1531.5 -4.47925 1527.6 -4.47925Z" fill="#303033"/>
<path d="M1582.72 12.8025H1557.22C1553.61 12.8025 1550.69 15.7274 1550.69 19.3356V44.8403C1550.69 48.4484 1553.61 51.3734 1557.22 51.3734H1582.72C1586.33 51.3734 1589.26 48.4484 1589.26 44.8403V19.3356C1589.26 15.7274 1586.33 12.8025 1582.72 12.8025Z" fill="#303033"/>
<path d="M1644.22 -25.5596H1611.97C1608.62 -25.5596 1605.91 -22.8468 1605.91 -19.5005V12.7509C1605.91 16.0972 1608.62 18.81 1611.97 18.81H1644.22C1647.56 18.81 1650.28 16.0972 1650.28 12.7509V-19.5005C1650.28 -22.8468 1647.56 -25.5596 1644.22 -25.5596Z" fill="#303033"/>
<path d="M1661.02 72.2407H1632.15C1628.83 72.2407 1626.14 74.9306 1626.14 78.2486V107.122C1626.14 110.44 1628.83 113.13 1632.15 113.13H1661.02C1664.34 113.13 1667.03 110.44 1667.03 107.122V78.2486C1667.03 74.9306 1664.34 72.2407 1661.02 72.2407Z" fill="#303033"/>
<path d="M1762.09 22.0776H1738.07C1735.39 22.0776 1733.22 24.2468 1733.22 26.9241V50.9514C1733.22 53.6287 1735.39 55.7978 1738.07 55.7978H1753.67C1756.34 55.7978 1758.51 57.967 1758.51 60.6443C1758.51 63.3216 1756.34 65.4907 1753.67 65.4907H1727.11C1724.43 65.4907 1722.26 63.3216 1722.26 60.6443V58.1164C1722.26 55.4392 1720.09 53.27 1717.41 53.27H1688.96C1686.28 53.27 1684.11 55.4392 1684.11 58.1164V86.5717C1684.11 89.249 1686.28 91.4182 1688.96 91.4182H1703.08C1705.76 91.4182 1707.92 93.5873 1707.92 96.2646V111.231C1707.92 113.908 1710.09 116.077 1712.77 116.077H1753.66C1756.34 116.077 1758.51 113.908 1758.51 111.231V103.852C1758.51 101.175 1760.68 99.006 1763.35 99.006H1809.09C1811.77 99.006 1813.94 96.8368 1813.94 94.1595V48.4193C1813.94 45.742 1811.77 43.5728 1809.09 43.5728H1771.79C1769.11 43.5728 1766.94 41.4037 1766.94 38.7264V26.9241C1766.94 24.2468 1764.77 22.0776 1762.09 22.0776V22.0776Z" fill="#303033"/>
<path d="M1712.72 15.3856H1739.33C1744.3 15.3856 1748.34 11.3505 1748.34 6.37595V-20.2347C1748.34 -25.2092 1744.3 -29.2444 1739.33 -29.2444H1724.1C1719.13 -29.2444 1715.09 -33.2795 1715.09 -38.2541V-42.4686C1715.09 -47.4431 1711.05 -51.4783 1706.08 -51.4783H1679.63C1674.65 -51.4783 1670.62 -47.4431 1670.62 -42.4686V-16.0159C1670.62 -11.0414 1674.65 -7.00621 1679.63 -7.00621H1694.7C1699.67 -7.00621 1703.71 -2.97107 1703.71 2.00348V6.37595C1703.71 11.3505 1707.74 15.3856 1712.72 15.3856V15.3856Z" fill="#303033"/>
<path d="M-3.78944 73.0029H-26.7757C-29.337 73.0029 -31.4122 75.0781 -31.4122 77.6394V100.626C-31.4122 103.187 -29.337 105.262 -26.7757 105.262H-11.8532C-9.29194 105.262 -7.21677 107.337 -7.21677 109.899C-7.21677 112.46 -9.29194 114.535 -11.8532 114.535H-37.262C-39.8233 114.535 -41.8984 112.46 -41.8984 109.899V107.48C-41.8984 104.919 -43.9736 102.844 -46.5349 102.844H-73.7573C-76.3186 102.844 -78.3938 104.919 -78.3938 107.48V134.703C-78.3938 137.264 -76.3186 139.339 -73.7573 139.339H-60.2482C-57.6869 139.339 -55.6117 141.414 -55.6117 143.976V158.294C-55.6117 160.855 -53.5366 162.93 -50.9753 162.93H-11.8573C-9.29602 162.93 -7.22085 160.855 -7.22085 158.294V151.235C-7.22085 148.673 -5.14568 146.598 -2.58439 146.598H41.1741C43.7354 146.598 45.8106 144.523 45.8106 141.962V98.2033C45.8106 95.642 43.7354 93.5668 41.1741 93.5668H5.48349C2.92219 93.5668 0.84702 91.4916 0.84702 88.9303V77.6394C0.84702 75.0781 -1.22815 73.0029 -3.78944 73.0029V73.0029Z" fill="#303033"/>
<path d="M90.5784 51.6318H78.4786C73.691 51.6318 69.8061 47.751 69.8061 42.9593C69.8061 38.1717 65.9253 34.2868 61.1336 34.2868H27.9635C23.1758 34.2868 19.291 38.1676 19.291 42.9593V76.1295C19.291 80.9171 23.1718 84.802 27.9635 84.802H53.0699C57.8575 84.802 61.7424 88.6827 61.7424 93.4744V101.036C61.7424 105.823 65.6231 109.708 70.4148 109.708H111.146C115.934 109.708 119.819 105.827 119.819 101.036V69.7814C119.819 64.9938 123.7 61.109 128.491 61.109H137.564C142.352 61.109 146.236 57.2282 146.236 52.4365V22.7957C146.236 18.0081 142.356 14.1233 137.564 14.1233L107.923 14.1233C103.136 14.1233 99.2508 18.004 99.2508 22.7957V42.9593C99.2508 47.747 95.3701 51.6318 90.5784 51.6318V51.6318Z" fill="#303033"/>
</g>
<defs>
<clipPath id="clip0_774_27963">
<rect width="1728" height="248" fill="white"/>
</clipPath>
</defs>
</svg>
